<svg width="84" height="84" viewBox="0 0 84 84" fill="none" xmlns="http://www.w3.org/2000/svg">
<path d="M80.75 34C79.5792 32.5944 78.1142 31.4628 76.4583 30.6853C74.8024 29.9077 72.9961 29.5031 71.1667 29.5H52.1667L54.5 23.5417C55.4706 20.9328 55.7938 18.1275 55.442 15.3663C55.0901 12.6051 54.0737 9.97051 52.48 7.68844C50.8862 5.40637 48.7627 3.54497 46.2915 2.26391C43.8203 0.982857 41.0752 0.320382 38.2917 0.333316C37.4902 0.334988 36.7062 0.567796 36.0337 1.00383C35.3611 1.43986 34.8287 2.06061 34.5 2.79165L22.625 29.5H12.8334C9.51817 29.5 6.33874 30.8169 3.99454 33.1611C1.65033 35.5054 0.333374 38.6848 0.333374 42V71.1667C0.333374 74.4819 1.65033 77.6613 3.99454 80.0055C6.33874 82.3497 9.51817 83.6667 12.8334 83.6667H65.875C68.7992 83.6657 71.6306 82.6395 73.8764 80.7668C76.1222 78.894 77.6403 76.2931 78.1667 73.4167L83.4584 44.25C83.7857 42.4474 83.7127 40.5949 83.2447 38.8236C82.7767 37.0524 81.925 35.4056 80.75 34ZM21.1667 75.3333H12.8334C11.7283 75.3333 10.6685 74.8943 9.8871 74.1129C9.10569 73.3315 8.66671 72.2717 8.66671 71.1667V42C8.66671 40.8949 9.10569 39.8351 9.8871 39.0537C10.6685 38.2723 11.7283 37.8333 12.8334 37.8333H21.1667V75.3333ZM75.3334 42.75L70.0417 71.9167C69.8642 72.8873 69.348 73.7635 68.585 74.3892C67.822 75.0148 66.8617 75.3494 65.875 75.3333H29.5V34.5417L40.8334 9.04165C42 9.38176 43.0834 9.96001 44.0153 10.7399C44.9471 11.5198 45.7072 12.4844 46.2475 13.5729C46.7878 14.6613 47.0966 15.8499 47.1544 17.0637C47.2122 18.2775 47.0178 19.4901 46.5834 20.625L44.375 26.5833C43.9045 27.8427 43.7456 29.1973 43.912 30.5314C44.0784 31.8655 44.5651 33.1395 45.3306 34.2447C46.0961 35.35 47.1176 36.2536 48.308 36.8785C49.4984 37.5034 50.8223 37.831 52.1667 37.8333H71.1667C71.7788 37.8323 72.3837 37.9662 72.9382 38.2255C73.4927 38.4847 73.9833 38.863 74.375 39.3333C74.7764 39.7972 75.0704 40.3439 75.2361 40.9345C75.4018 41.5251 75.435 42.1451 75.3334 42.75Z" fill="#F6F4F4"/>
</svg>
