<svg width="28" height="28" viewBox="0 0 28 28" fill="none" xmlns="http://www.w3.org/2000/svg">
<circle cx="14" cy="14" r="14" fill="#FF7517"/>
<path d="M17.5774 5.91076C17.9028 5.58533 18.4305 5.58533 18.7559 5.91076L22.0893 9.2441C22.4147 9.56954 22.4147 10.0972 22.0893 10.4226L11.2559 21.2559C11.0996 21.4122 10.8877 21.5 10.6667 21.5H7.33333C6.8731 21.5 6.5 21.1269 6.5 20.6667V17.3334C6.5 17.1123 6.5878 16.9004 6.74408 16.7441L15.0772 8.41094L17.5774 5.91076ZM15.6667 10.1785L8.16667 17.6785V19.8334H10.3215L17.8215 12.3334L15.6667 10.1785ZM19 11.1548L20.3215 9.83335L18.1667 7.67853L16.8452 9.00002L19 11.1548Z" fill="white"/>
</svg>
