<svg width="56" height="56" viewBox="0 0 56 56" fill="none" xmlns="http://www.w3.org/2000/svg">
<rect x="0.5" y="0.5" width="55" height="55" rx="9.5" fill="#F6F4F4"/>
<path d="M35 26C34.7348 26 34.4804 26.1054 34.2929 26.2929C34.1054 26.4804 34 26.7348 34 27V30.38L32.52 28.9C31.9974 28.3815 31.2911 28.0906 30.555 28.0906C29.8189 28.0906 29.1126 28.3815 28.59 28.9L27.89 29.61L25.41 27.12C24.8874 26.6015 24.1811 26.3106 23.445 26.3106C22.7089 26.3106 22.0026 26.6015 21.48 27.12L20 28.61V23C20 22.7348 20.1054 22.4804 20.2929 22.2929C20.4804 22.1054 20.7348 22 21 22H29C29.2652 22 29.5196 21.8946 29.7071 21.7071C29.8946 21.5196 30 21.2652 30 21C30 20.7348 29.8946 20.4804 29.7071 20.2929C29.5196 20.1054 29.2652 20 29 20H21C20.2044 20 19.4413 20.3161 18.8787 20.8787C18.3161 21.4413 18 22.2044 18 23V35.22C18.0026 35.9565 18.2964 36.6621 18.8172 37.1828C19.3379 37.7036 20.0435 37.9974 20.78 38H33.22C33.491 37.9978 33.7603 37.9574 34.02 37.88C34.5974 37.718 35.1058 37.3711 35.4671 36.8924C35.8283 36.4137 36.0226 35.8297 36.02 35.23V27C36.02 26.867 35.9935 26.7353 35.942 26.6126C35.8905 26.49 35.8151 26.3789 35.7201 26.2857C35.6251 26.1926 35.5125 26.1194 35.3888 26.0703C35.2652 26.0212 35.133 25.9973 35 26ZM21 36C20.7348 36 20.4804 35.8946 20.2929 35.7071C20.1054 35.5196 20 35.2652 20 35V31.43L22.89 28.54C23.0362 28.3947 23.2339 28.3131 23.44 28.3131C23.6461 28.3131 23.8438 28.3947 23.99 28.54L31.46 36H21ZM34 35C33.9936 35.1936 33.931 35.3812 33.82 35.54L29.3 31L30.01 30.3C30.0817 30.2268 30.1673 30.1687 30.2617 30.129C30.3561 30.0893 30.4576 30.0689 30.56 30.0689C30.6624 30.0689 30.7639 30.0893 30.8583 30.129C30.9527 30.1687 31.0383 30.2268 31.11 30.3L34 33.21V35ZM37 20H36V19C36 18.7348 35.8946 18.4804 35.7071 18.2929C35.5196 18.1054 35.2652 18 35 18C34.7348 18 34.4804 18.1054 34.2929 18.2929C34.1054 18.4804 34 18.7348 34 19V20H33C32.7348 20 32.4804 20.1054 32.2929 20.2929C32.1054 20.4804 32 20.7348 32 21C32 21.2652 32.1054 21.5196 32.2929 21.7071C32.4804 21.8946 32.7348 22 33 22H34V23C34 23.2652 34.1054 23.5196 34.2929 23.7071C34.4804 23.8946 34.7348 24 35 24C35.2652 24 35.5196 23.8946 35.7071 23.7071C35.8946 23.5196 36 23.2652 36 23V22H37C37.2652 22 37.5196 21.8946 37.7071 21.7071C37.8946 21.5196 38 21.2652 38 21C38 20.7348 37.8946 20.4804 37.7071 20.2929C37.5196 20.1054 37.2652 20 37 20Z" fill="#AAAAAA"/>
<rect x="0.5" y="0.5" width="55" height="55" rx="9.5" stroke="#AAAAAA" stroke-dasharray="5 5"/>
</svg>
